<?xml version="1.0" encoding="UTF-8"?>
<svg xmlns="http://www.w3.org/2000/svg" width="2000" height="600" viewBox="0 0 2000 600" role="img" aria-labelledby="title description">
  <title id="title">Grupo GPS e GRSA</title>
  <desc id="description">Assinatura conjunta com Grupo GPS à esquerda e GRSA à direita.</desc>
  <g id="grupo-gps" fill="#101E2A" fill-rule="evenodd"><g transform="translate(90.00 170.00) scale(0.50000000)"><path d="M1169 66L1170 36L1174 31L1350 31L1391 36L1411 41L1422 47L1428 48L1440 54L1442 57L1461 69L1475 84L1484 97L1495 122L1501 150L1501 211L1494 241L1491 244L1481 267L1465 288L1434 313L1428 314L1425 318L1412 324L1400 326L1396 329L1359 336L1310 336L1300 337L1298 339L1298 483L1293 487L1174 487L1169 482ZM744 238L750 196L754 186L756 171L763 152L767 148L768 140L775 128L779 124L785 112L790 108L791 104L815 79L820 77L823 72L838 63L841 59L849 56L859 49L892 36L908 34L923 29L958 26L963 24L985 24L1052 30L1067 35L1074 35L1101 42L1110 47L1130 53L1133 57L1132 65L1117 96L1115 107L1101 136L1098 147L1093 154L1087 154L1059 141L1046 139L1032 134L1006 130L980 130L964 131L948 135L928 144L912 156L897 174L894 183L889 189L888 197L884 205L877 239L877 274L879 295L889 331L897 346L905 354L907 359L915 364L919 369L932 377L936 377L950 383L986 385L1019 382L1023 379L1024 373L1022 315L949 314L944 310L945 220L949 216L1138 216L1142 221L1142 462L1137 467L1120 470L1116 473L1104 475L1091 480L1067 483L1061 486L1041 487L1002 493L947 493L897 486L892 483L877 480L871 476L861 474L840 463L835 458L824 452L798 427L796 423L792 421L791 417L785 412L771 388L761 366L755 348L747 308L744 278ZM468 220L468 265L470 268L497 268L509 263L513 259L518 242L516 231L508 221L500 217L486 216L471 216ZM1514 419L1515 354L1518 351L1524 351L1538 360L1558 366L1564 370L1573 371L1582 376L1640 388L1659 388L1687 382L1702 373L1708 359L1707 347L1702 338L1694 331L1664 316L1663 314L1642 307L1636 302L1628 300L1621 295L1603 288L1582 276L1578 271L1566 265L1564 261L1547 246L1537 233L1534 225L1529 220L1524 209L1523 199L1519 188L1518 143L1527 109L1531 101L1534 99L1537 90L1548 75L1568 57L1597 40L1601 40L1608 36L1618 35L1630 30L1676 24L1712 25L1746 29L1756 33L1785 39L1828 56L1831 59L1832 66L1826 75L1825 83L1813 109L1807 129L1802 136L1800 148L1795 154L1789 154L1770 145L1735 134L1696 127L1673 127L1660 131L1655 133L1645 143L1644 147L1644 161L1650 171L1659 179L1678 187L1682 191L1702 198L1707 203L1718 208L1722 208L1762 227L1765 231L1781 240L1786 246L1794 251L1807 264L1819 281L1830 309L1833 332L1833 359L1830 379L1824 400L1818 414L1806 433L1787 452L1767 467L1759 469L1740 480L1680 492L1626 493L1575 486L1551 480L1542 475L1538 475L1529 470L1518 467L1514 460ZM25 274L29 242L35 229L45 216L61 203L77 196L102 192L132 196L143 200L148 204L149 212L142 223L136 223L121 216L89 215L70 224L64 232L61 233L59 239L55 243L50 260L50 281L57 303L61 309L75 321L99 326L123 324L128 322L130 318L129 286L126 284L98 283L96 280L96 267L100 264L117 263L149 264L151 266L152 278L152 321L151 335L149 338L112 348L91 348L77 343L70 343L57 337L42 324L40 319L34 313L29 300ZM555 268L558 241L562 235L565 225L579 208L591 199L604 195L621 192L634 193L659 201L670 209L684 225L690 240L691 248L691 292L684 313L681 315L675 326L663 337L654 342L641 344L634 348L615 348L586 338L569 322L557 298ZM299 202L300 198L304 195L318 195L322 199L322 292L327 311L336 321L342 324L365 326L379 321L386 315L393 294L393 200L398 194L411 194L415 197L415 309L409 322L394 338L388 342L379 343L368 348L349 348L341 344L329 342L320 337L308 324L303 315L300 304ZM578 264L578 277L585 304L591 314L598 317L605 323L615 325L634 325L641 323L653 316L659 310L664 301L669 282L669 257L666 250L666 244L658 229L643 217L627 214L613 215L605 217L593 225L589 229L583 241L582 252ZM444 202L446 197L455 194L484 194L514 198L522 202L534 213L542 230L542 247L540 257L528 276L524 277L517 283L502 288L469 290L468 341L461 345L449 345L444 339ZM178 272L180 197L184 195L232 195L250 198L254 202L262 205L271 215L276 227L276 248L267 265L258 274L251 277L249 281L258 292L267 311L271 314L279 331L284 336L285 343L276 346L261 344L251 326L246 321L239 305L234 300L232 293L225 284L218 286L205 286L203 288L201 342L199 344L180 343ZM1298 136L1299 229L1301 231L1328 231L1355 222L1366 212L1373 191L1373 168L1367 152L1354 140L1342 136L1326 133L1300 134ZM202 218L202 260L205 264L233 264L240 262L249 254L252 244L251 230L241 219L233 216L205 216Z"/></g></g>
  <rect id="separador" x="1088" y="115" width="4" height="370" rx="2" fill="#AAB2B9"/>
  <g id="grsa" fill="#231F20" fill-rule="evenodd"><g transform="translate(1160.00 55.00) scale(0.58064516)"><path d="M7 331L8 331L8 315L9 315L9 309L10 309L9 307L10 307L10 303L11 303L11 296L13 294L13 289L15 286L15 281L17 279L17 276L18 276L20 267L22 265L22 262L24 260L24 257L29 249L29 246L31 245L31 242L33 241L34 237L36 236L37 232L39 231L40 227L42 226L42 224L44 223L46 218L49 216L51 211L56 207L56 205L60 202L60 200L64 196L66 196L66 194L71 189L73 189L73 187L75 187L79 182L81 182L84 178L89 176L91 173L95 172L97 169L100 169L100 167L103 167L104 165L106 165L106 164L108 164L108 163L110 163L110 162L112 162L112 161L114 161L122 156L125 156L126 154L135 152L137 150L144 149L146 147L151 147L153 145L158 145L161 143L166 143L169 141L182 140L182 139L187 139L187 138L197 138L197 137L204 137L204 136L356 136L355 192L216 192L216 193L203 193L203 194L199 194L199 195L186 196L183 198L172 200L170 202L166 202L165 204L161 204L157 207L154 207L153 209L150 209L149 211L146 211L145 213L134 218L132 221L128 222L124 227L119 229L119 231L117 231L103 245L103 247L100 249L100 251L97 253L96 257L94 258L93 262L91 263L90 267L88 268L88 270L85 274L85 277L82 281L81 287L79 288L77 298L75 300L74 310L72 313L71 327L70 327L70 352L71 352L71 358L72 358L72 365L73 365L74 374L76 376L77 383L79 385L81 393L83 394L83 397L85 398L85 401L86 401L88 407L92 411L92 414L94 414L95 418L99 421L101 426L121 446L126 448L129 452L133 453L135 456L139 457L143 461L146 461L147 463L150 463L150 464L157 466L159 468L169 470L171 472L183 473L183 474L187 474L187 475L200 475L200 476L224 476L224 475L237 475L237 474L242 474L242 473L256 472L256 471L265 470L268 468L273 468L275 466L279 466L279 465L294 461L294 367L223 367L223 311L355 311L355 501L348 503L346 505L343 505L341 507L335 508L333 510L329 510L327 512L323 512L323 513L320 513L320 514L317 514L314 516L310 516L307 518L297 519L295 521L289 521L286 523L269 525L269 526L265 526L265 527L247 528L247 529L240 529L240 530L224 530L224 531L187 531L187 530L175 530L175 529L170 529L170 528L157 527L154 525L149 525L146 523L142 523L140 521L136 521L136 520L131 519L131 518L127 518L126 516L118 514L117 512L113 512L112 510L109 510L108 508L98 504L97 502L93 501L89 497L85 496L82 492L80 492L74 486L72 486L70 483L68 483L48 463L48 461L41 454L40 450L37 448L37 446L33 442L31 436L29 435L29 432L28 432L26 426L24 425L24 421L22 420L22 417L20 415L19 409L17 407L17 402L15 400L15 396L13 393L10 372L9 372L10 371L9 364L8 364ZM618 227L619 227L620 216L622 213L622 209L623 209L623 205L625 203L626 197L629 194L629 191L631 190L635 181L640 176L640 174L651 163L656 161L658 158L660 158L664 154L668 153L669 151L671 151L673 149L676 149L677 147L680 147L680 146L685 145L687 143L691 143L693 141L703 140L706 138L720 137L720 136L738 136L738 137L746 137L746 138L755 138L755 139L759 139L759 140L765 140L765 141L777 143L777 144L783 145L785 147L789 147L790 149L796 150L796 151L810 157L814 161L820 163L820 165L822 165L822 230L820 230L817 226L815 226L809 219L804 217L801 213L799 213L795 209L792 209L792 207L789 207L788 205L786 205L786 204L784 204L784 203L782 203L774 198L771 198L771 197L766 196L766 195L762 195L760 193L755 193L752 191L746 191L746 190L740 190L740 189L722 189L722 190L703 193L703 194L698 195L695 198L689 200L689 202L687 202L678 211L677 215L675 216L675 219L673 220L672 231L671 231L673 244L675 246L675 250L677 251L677 254L679 255L681 260L686 264L686 266L693 273L695 273L700 279L705 281L707 284L711 285L713 288L716 288L720 292L731 297L735 301L738 301L739 303L746 306L747 308L749 308L753 312L755 312L758 315L762 316L763 318L767 319L767 321L770 321L771 323L776 325L778 328L782 329L784 332L786 332L791 337L793 337L796 341L798 341L807 350L807 352L811 355L811 357L815 360L816 364L819 366L820 370L824 374L824 377L827 381L827 384L829 385L829 388L831 390L831 394L833 396L833 401L834 401L834 405L835 405L835 412L836 412L836 443L835 443L835 450L834 450L834 454L833 454L833 459L831 461L831 465L829 467L827 475L826 475L823 483L821 484L820 488L817 490L815 495L801 509L796 511L794 514L783 519L782 521L779 521L777 523L774 523L774 524L766 526L766 527L757 528L754 530L747 530L747 531L742 531L742 532L702 532L702 531L689 530L686 528L677 527L677 526L671 525L669 523L660 521L659 519L651 517L651 516L641 512L640 510L632 507L631 505L626 503L623 499L619 498L619 423L625 428L625 430L629 433L629 435L631 435L631 437L633 439L635 439L635 441L640 446L642 446L642 448L644 448L648 453L650 453L653 457L658 459L660 462L664 463L666 466L669 466L673 470L684 473L686 475L698 477L700 479L713 480L713 481L732 481L732 480L737 480L737 479L743 479L745 477L749 477L751 475L754 475L755 473L757 473L760 470L762 470L763 468L765 468L765 466L767 466L770 463L770 461L773 459L773 457L776 455L776 452L778 451L778 448L780 447L782 430L781 430L780 418L778 416L778 413L777 413L774 405L772 404L771 400L767 397L767 395L755 383L753 383L751 380L749 380L749 378L744 376L742 373L733 369L732 367L730 367L726 363L723 363L723 361L719 360L718 358L716 358L713 355L709 354L708 352L704 351L703 349L701 349L697 345L694 345L694 343L691 343L689 340L686 340L685 338L683 338L679 334L675 333L673 330L671 330L669 327L667 327L664 323L662 323L660 320L658 320L658 318L656 316L654 316L654 314L651 313L647 309L647 307L638 299L638 297L636 296L636 294L634 294L633 290L631 289L630 285L628 284L628 282L625 278L625 275L623 274L622 266L620 263L619 252L618 252ZM309 539L313 539L315 541L323 542L325 544L329 544L329 545L343 548L346 550L351 550L351 551L355 551L358 553L363 553L366 555L380 557L380 558L388 559L388 560L392 560L392 561L394 560L397 562L403 562L403 563L413 564L413 565L417 565L417 566L424 566L424 567L435 568L435 569L439 569L439 570L443 569L443 570L447 570L447 571L455 571L455 572L460 572L460 573L469 573L469 574L474 574L474 575L485 575L485 576L490 576L490 577L502 577L502 578L509 578L509 579L554 581L554 582L643 582L643 581L655 581L655 580L672 580L672 579L686 579L686 578L693 578L693 577L704 577L704 576L709 576L709 575L719 575L719 574L724 574L724 573L732 573L732 572L737 572L737 571L751 570L754 568L771 566L771 565L780 564L783 562L789 562L792 560L801 559L804 557L809 557L809 556L823 553L826 551L834 550L836 548L841 548L843 546L847 546L849 544L852 544L852 543L855 543L858 541L862 541L864 539L868 539L869 537L873 537L873 536L878 535L880 533L883 533L885 531L892 530L893 528L896 528L896 527L901 526L905 523L908 523L914 519L917 519L921 516L924 516L927 513L930 513L931 511L937 510L938 508L941 508L942 506L945 506L946 504L964 496L965 494L971 492L972 490L975 490L976 488L980 487L981 485L990 481L994 477L1003 473L1005 470L1008 470L1010 467L1014 466L1016 463L1018 463L1019 461L1021 461L1022 459L1024 459L1025 457L1030 455L1032 452L1036 451L1038 448L1043 446L1041 443L1041 440L1039 439L1037 431L1034 427L1034 424L1032 423L1032 420L1030 418L1028 410L1025 407L1025 404L1024 404L1023 399L1019 393L1019 390L1017 389L1015 381L852 381L854 379L854 376L859 368L859 365L860 365L860 363L865 355L865 352L867 351L867 348L870 345L870 342L871 342L878 327L990 327L990 325L987 321L987 318L985 316L985 313L983 312L983 309L979 303L979 300L977 299L976 293L974 292L972 284L970 283L970 280L967 276L967 273L963 267L963 264L961 263L961 260L960 260L959 255L956 251L956 248L954 247L954 244L951 240L951 237L948 234L948 231L947 231L947 228L943 222L943 219L941 218L941 215L938 211L936 203L934 202L934 199L930 193L928 185L925 182L925 178L923 177L923 174L919 168L918 162L916 161L915 156L912 152L912 149L910 148L910 145L907 141L906 136L965 136L967 143L969 144L969 147L973 153L973 156L976 160L976 163L978 164L980 172L982 173L982 176L983 176L985 183L989 189L989 192L991 193L991 196L992 196L993 201L996 205L996 208L998 209L998 212L1002 218L1002 221L1004 222L1005 228L1007 229L1009 237L1011 238L1011 241L1012 241L1014 248L1018 254L1018 257L1020 258L1020 261L1021 261L1022 266L1025 270L1025 273L1027 274L1027 277L1031 283L1031 286L1034 290L1034 293L1036 294L1038 302L1040 303L1040 306L1043 310L1043 313L1046 317L1046 320L1049 323L1049 326L1050 326L1051 331L1054 335L1054 338L1056 339L1056 342L1060 348L1062 356L1065 359L1067 367L1071 373L1071 376L1073 377L1075 385L1078 388L1078 392L1080 393L1080 396L1081 396L1086 408L1088 406L1090 406L1099 397L1099 395L1117 377L1117 375L1121 372L1121 370L1123 370L1123 368L1126 366L1128 361L1130 361L1132 356L1135 354L1135 352L1137 351L1137 349L1139 348L1139 346L1141 345L1141 343L1145 339L1146 335L1150 331L1152 325L1154 324L1154 321L1156 320L1156 318L1157 318L1157 316L1158 316L1158 314L1163 306L1163 303L1165 302L1166 296L1168 294L1168 291L1169 291L1170 286L1172 284L1172 280L1174 278L1175 270L1177 268L1177 263L1179 260L1179 255L1181 252L1181 245L1182 245L1182 241L1183 241L1183 232L1184 232L1184 226L1185 226L1185 224L1184 224L1184 222L1185 222L1185 220L1184 220L1185 219L1185 185L1184 185L1185 181L1184 181L1184 174L1183 174L1183 165L1182 165L1182 161L1181 161L1181 154L1180 154L1179 145L1177 142L1177 137L1175 134L1174 126L1172 124L1172 120L1170 118L1170 114L1169 114L1168 109L1166 107L1166 104L1165 104L1164 98L1161 94L1161 91L1160 91L1160 89L1155 81L1154 76L1152 75L1152 72L1150 71L1147 63L1145 62L1145 59L1141 55L1137 46L1134 44L1134 41L1131 39L1130 35L1126 32L1125 28L1121 25L1121 23L1115 17L1115 15L1112 13L1112 11L1110 11L1108 9L1108 7L1110 7L1121 19L1123 19L1138 34L1138 36L1151 48L1151 50L1154 52L1154 54L1161 60L1163 65L1165 65L1165 67L1168 69L1168 71L1172 74L1172 76L1177 81L1178 85L1181 87L1181 89L1185 93L1186 97L1189 99L1192 106L1194 107L1194 110L1196 111L1197 115L1199 116L1201 123L1203 123L1203 126L1205 127L1205 130L1207 131L1207 134L1208 134L1208 136L1211 140L1211 143L1214 147L1216 155L1218 156L1218 160L1219 160L1221 168L1222 168L1222 172L1223 172L1223 175L1225 178L1225 183L1227 185L1227 190L1228 190L1228 194L1229 194L1229 200L1230 200L1230 204L1231 204L1230 208L1231 208L1231 212L1232 212L1232 225L1233 225L1233 255L1232 255L1231 274L1230 274L1230 280L1229 280L1227 293L1225 296L1225 300L1223 302L1223 306L1221 308L1220 315L1218 317L1216 325L1214 326L1214 329L1213 329L1207 343L1205 344L1205 347L1203 347L1203 350L1201 351L1197 360L1194 362L1193 366L1190 368L1189 372L1187 372L1187 374L1185 375L1183 380L1181 380L1181 382L1172 391L1172 393L1167 397L1167 399L1139 427L1137 427L1125 439L1123 439L1120 443L1118 443L1115 447L1113 447L1111 450L1109 450L1109 452L1106 453L1107 457L1109 458L1109 461L1112 465L1112 468L1116 474L1116 477L1118 478L1120 486L1122 487L1123 493L1125 494L1125 497L1129 503L1129 506L1131 507L1132 513L1136 519L1136 522L1138 523L1139 528L1079 528L1079 526L1076 522L1076 519L1074 517L1074 514L1072 513L1072 510L1068 504L1068 501L1066 500L1065 494L1064 494L1064 492L1061 488L1061 485L1060 485L1059 487L1055 488L1054 490L1051 490L1050 492L1043 495L1042 497L1034 500L1033 502L1025 505L1022 508L1019 508L1018 510L1015 510L1014 512L1011 512L1010 514L1008 514L1004 517L1001 517L1000 519L997 519L996 521L993 521L992 523L989 523L988 525L985 525L981 528L973 530L972 532L969 532L969 533L967 533L963 536L960 536L958 538L952 539L951 541L947 541L945 543L942 543L942 544L937 545L935 547L929 548L927 550L923 550L923 551L918 552L916 554L902 557L900 559L890 561L888 563L873 566L873 567L866 568L863 570L858 570L855 572L850 572L847 574L842 574L839 576L828 577L825 579L819 579L816 581L809 581L806 583L799 583L799 584L795 584L795 585L787 585L787 586L767 588L767 589L762 589L762 590L752 590L752 591L746 591L746 592L735 592L735 593L727 593L727 594L712 594L712 595L703 595L703 596L678 596L678 597L583 596L583 595L573 595L573 594L557 594L557 593L549 593L549 592L537 592L537 591L531 591L531 590L505 588L505 587L501 587L501 586L497 587L497 586L493 586L493 585L484 585L484 584L480 584L480 583L473 583L473 582L469 582L469 581L451 579L448 577L435 576L432 574L426 574L423 572L418 572L418 571L409 570L406 568L388 565L385 563L381 563L378 561L367 559L365 557L360 557L360 556L356 556L354 554L343 552L341 550L337 550L335 548L331 548L331 547L328 547L326 545L316 543L316 542L311 541ZM384 310L387 310L387 311L431 310L431 309L440 308L443 306L450 305L450 304L462 299L464 296L466 296L473 289L473 287L476 285L477 281L479 280L480 275L482 273L483 263L484 263L484 258L485 258L485 243L484 243L482 230L481 230L478 222L474 218L474 216L469 211L464 209L462 206L460 206L454 202L451 202L450 200L447 200L445 198L441 198L441 197L433 196L433 195L427 195L427 194L423 194L423 193L411 193L411 192L386 192L385 193L385 136L390 136L390 135L426 135L426 136L439 136L439 137L444 137L444 138L451 138L451 139L455 139L455 140L457 139L460 141L473 143L475 145L478 145L478 146L484 147L485 149L493 151L493 152L497 153L498 155L502 156L503 158L507 159L508 161L513 163L513 165L515 165L518 169L520 169L526 175L526 177L531 181L531 183L533 184L533 186L535 187L535 189L539 193L539 196L544 204L544 207L546 209L546 213L548 215L548 220L549 220L549 224L550 224L549 226L550 226L550 231L551 231L551 266L550 266L549 278L548 278L548 283L546 285L546 289L545 289L544 294L542 296L542 300L540 301L539 306L537 307L536 311L533 313L532 317L514 335L512 335L511 337L504 340L503 342L501 342L497 345L494 345L493 347L490 347L490 348L497 355L499 355L514 370L514 372L520 377L520 379L522 379L522 381L525 383L525 385L530 389L531 393L535 396L536 400L539 402L540 406L542 407L542 409L544 410L544 412L546 413L546 415L548 416L548 418L552 422L553 426L555 427L555 429L559 433L560 437L562 438L562 440L564 441L564 443L568 447L568 449L571 452L572 456L574 457L575 461L580 466L581 470L584 472L585 476L588 478L588 480L591 483L591 485L593 486L593 488L595 488L596 492L598 493L600 498L603 500L604 504L608 507L609 511L612 513L612 515L615 517L615 519L618 521L618 523L620 524L620 526L622 526L623 529L545 529L544 526L542 525L541 521L539 520L538 516L536 515L536 513L532 509L531 505L529 504L529 502L527 501L527 499L523 495L522 491L520 490L520 488L518 487L518 485L514 481L513 477L511 476L511 474L509 473L509 471L507 470L507 468L503 464L502 460L499 458L498 454L496 453L496 451L492 447L491 443L489 443L487 438L484 436L483 432L479 429L478 425L474 422L474 420L471 418L471 416L468 414L468 412L464 409L464 407L461 405L461 403L449 391L449 389L447 389L437 379L433 378L432 376L429 376L426 373L423 373L423 372L420 372L420 371L417 371L414 369L403 368L403 367L384 367ZM303 537L307 537L309 539L306 539Z"/></g><g transform="translate(1160.00 420.00) scale(0.63436123)"><path d="M856 166L857 166L857 162L858 162L858 157L860 156L861 152L869 144L872 144L873 142L876 142L878 140L893 140L895 142L898 142L899 144L902 144L909 151L909 153L911 154L911 156L913 158L913 162L914 162L914 175L913 175L913 179L912 179L910 185L902 193L899 193L898 195L895 195L895 196L892 196L892 197L879 197L879 196L876 196L876 195L873 195L873 194L869 193L869 191L867 191L862 186L862 184L860 184L860 181L858 180ZM1099 26L1129 26L1129 34L1107 34L1107 47L1129 47L1129 55L1107 55L1107 72L1108 73L1129 73L1129 81L1099 81ZM105 141L136 141L136 149L135 150L114 150L114 162L135 162L135 170L114 170L114 187L135 187L136 188L136 196L105 196ZM854 78L855 78L856 73L858 72L858 70L860 68L860 65L861 65L861 63L862 63L862 61L863 61L863 59L865 57L865 54L867 53L867 50L869 49L869 46L870 46L870 44L871 44L871 42L873 40L873 37L874 37L874 35L875 35L875 33L876 33L876 31L878 29L878 26L880 25L880 22L882 22L884 30L885 30L885 32L886 32L886 34L887 34L887 36L888 36L888 38L890 40L890 43L891 43L891 45L893 47L893 50L895 51L895 54L896 54L896 56L897 56L897 58L899 60L899 63L900 63L900 65L902 67L902 70L904 71L904 75L906 76L907 81L897 81L896 76L895 76L894 71L893 71L892 68L869 68L868 72L866 73L866 77L864 78L863 81L854 81ZM604 26L613 26L613 72L614 73L629 73L629 81L604 81ZM767 23L769 22L770 25L784 38L784 40L806 62L807 62L807 26L816 26L816 84L788 57L788 55L777 44L776 44L776 81L767 81ZM1009 49L1010 49L1010 45L1011 45L1012 39L1023 28L1028 27L1028 26L1032 26L1032 25L1044 25L1044 26L1049 26L1049 27L1053 28L1064 39L1064 42L1066 43L1066 48L1067 48L1067 59L1066 59L1066 63L1065 63L1062 71L1057 76L1053 77L1052 79L1050 79L1048 81L1044 81L1044 82L1032 82L1032 81L1028 81L1028 80L1024 79L1023 77L1019 76L1014 71L1014 69L1013 69L1013 67L1011 65L1010 57L1009 57ZM908 49L909 49L909 44L910 44L912 38L914 37L914 35L918 31L920 31L920 29L922 29L922 28L924 28L926 26L931 26L931 25L943 25L943 26L950 27L951 28L951 39L949 37L941 34L941 33L936 33L936 34L933 33L933 34L930 34L930 35L924 37L924 39L922 39L922 41L919 44L919 47L918 47L918 50L917 50L917 58L919 60L920 65L926 71L929 71L930 73L943 73L944 71L947 71L947 69L949 69L951 67L951 79L948 79L947 81L942 81L942 82L931 82L931 81L926 81L925 79L922 79L921 77L919 77L913 71L913 69L911 68L911 65L909 64ZM967 16L973 10L980 10L980 11L983 11L985 13L990 13L991 10L993 10L994 12L997 13L997 16L993 20L991 20L991 21L984 21L984 20L981 20L981 19L979 19L977 17L973 21L971 21ZM196 49L197 49L197 44L198 44L200 38L202 37L202 35L206 31L208 31L208 29L210 29L210 28L212 28L214 26L219 26L219 25L231 25L231 26L238 27L239 28L239 39L237 37L235 37L234 35L231 35L229 33L224 33L224 34L221 33L221 34L218 34L218 35L214 36L212 39L210 39L210 41L207 44L206 50L205 50L205 57L206 57L208 65L214 71L217 71L218 73L231 73L232 71L235 71L239 67L239 79L236 79L235 81L230 81L230 82L219 82L219 81L214 81L213 79L210 79L209 77L207 77L201 71L201 69L199 68L199 65L197 64ZM955 79L956 79L956 77L958 75L958 72L960 71L960 68L962 67L963 61L965 60L965 57L967 56L967 53L968 53L968 51L969 51L969 49L971 47L971 44L972 44L972 42L973 42L973 40L974 40L974 38L976 36L976 33L978 32L978 30L980 28L980 25L983 22L984 27L986 28L986 31L987 31L987 33L989 35L989 38L990 38L990 40L991 40L991 42L993 44L993 47L995 48L997 56L998 56L998 58L1000 60L1000 63L1002 64L1002 67L1003 67L1003 69L1004 69L1004 71L1006 73L1006 76L1008 77L1009 81L999 81L998 77L996 76L996 73L994 71L994 68L970 68L965 81L955 81ZM279 141L310 141L310 149L309 150L288 150L288 161L289 162L309 162L309 170L288 170L288 187L310 187L310 196L279 196ZM6 65L16 63L16 69L20 73L28 73L29 71L31 71L31 69L33 67L32 60L30 58L24 56L24 55L21 55L20 53L15 52L10 47L8 39L9 39L9 35L10 35L10 32L12 31L12 29L14 29L17 26L20 26L20 25L30 25L30 26L35 27L40 32L41 35L39 35L39 36L37 36L36 38L33 39L30 34L23 33L23 34L21 34L18 37L18 42L21 45L23 45L23 46L26 46L26 47L29 47L30 49L33 49L34 51L36 51L40 55L41 62L42 62L42 67L41 67L40 74L34 80L32 80L32 81L29 81L29 82L19 82L19 81L14 80L12 77L10 77L10 75L9 75L9 73L7 71ZM727 26L757 26L757 34L735 34L735 47L757 47L757 55L735 55L735 73L757 73L757 81L727 81ZM355 141L365 141L366 142L366 145L368 147L368 151L370 152L370 155L371 155L372 160L374 162L374 165L376 167L376 170L377 170L377 173L379 175L379 178L380 178L380 175L381 175L382 170L384 168L384 165L386 163L386 160L388 158L389 152L391 151L393 142L394 141L404 141L403 146L401 148L401 151L399 152L399 155L397 157L396 163L395 163L395 165L393 167L392 173L390 174L388 182L386 183L385 189L383 191L383 194L382 194L380 200L377 197L377 194L375 192L375 189L373 187L371 179L370 179L370 177L368 175L368 172L366 170L366 167L364 165L362 157L360 156L360 153L359 153L359 150L357 148L357 144L355 143ZM457 79L458 79L458 75L459 75L458 73L459 73L459 69L460 69L460 63L461 63L461 60L462 60L462 53L463 53L463 49L464 49L464 43L465 43L465 40L466 40L466 33L467 33L467 30L468 30L469 22L470 22L470 24L471 24L471 26L472 26L472 28L474 30L475 36L477 37L477 40L478 40L478 42L479 42L479 44L481 46L481 49L483 50L483 53L484 53L484 56L485 56L487 62L489 62L489 59L490 59L490 57L491 57L491 55L493 53L493 50L495 49L495 46L497 45L498 39L500 38L500 35L501 35L501 33L502 33L502 31L504 29L504 26L506 25L506 22L508 22L508 28L509 28L509 32L510 32L510 39L511 39L511 43L512 43L512 50L513 50L513 54L514 54L515 68L516 68L516 72L517 72L517 79L518 79L518 81L509 81L508 80L508 73L507 73L507 68L506 68L506 60L505 60L504 50L503 50L503 53L501 54L501 57L499 58L499 61L498 61L498 63L497 63L497 65L495 67L495 70L493 71L493 74L492 74L492 76L491 76L491 78L489 80L489 83L486 82L484 74L482 73L482 70L481 70L481 68L479 66L479 63L478 63L478 61L477 61L477 59L475 57L475 54L473 53L473 50L472 50L472 55L471 55L471 59L470 59L470 66L469 66L469 70L468 70L467 81L457 81ZM662 141L693 141L693 149L692 150L672 150L672 162L692 162L692 170L672 170L672 187L693 187L693 196L662 196ZM722 180L727 180L727 179L731 178L733 185L736 188L739 188L739 189L742 189L742 188L747 186L747 184L749 183L748 175L746 173L744 173L743 171L740 171L740 170L737 170L737 169L733 168L732 166L730 166L727 163L727 161L725 160L725 150L726 150L727 146L731 142L734 142L736 140L747 140L747 141L751 142L757 148L757 150L755 150L754 152L749 154L749 152L747 150L741 148L741 149L738 149L738 150L735 151L734 156L735 156L735 158L737 160L740 160L741 162L744 162L744 163L747 163L747 164L751 165L757 171L757 174L758 174L758 184L757 184L757 188L755 189L755 191L752 194L750 194L750 195L748 195L746 197L735 197L733 195L730 195L725 190ZM961 141L995 141L995 149L994 150L982 150L982 196L973 196L973 150L961 150ZM213 95L215 94L215 92L217 91L217 89L219 88L219 86L221 84L226 86L226 87L228 87L228 90L223 94L223 96L220 99L215 98ZM320 141L336 141L336 142L341 142L341 143L345 144L350 149L350 152L351 152L350 166L348 166L348 168L346 170L344 170L343 172L341 172L340 174L345 179L346 183L350 186L352 191L354 191L356 196L345 196L344 193L342 193L342 191L340 190L339 186L337 186L336 182L333 180L333 178L331 177L330 174L329 174L329 196L320 196ZM313 26L345 26L345 34L323 34L323 47L344 47L344 55L323 55L323 73L345 73L345 81L313 81ZM488 163L488 174L489 174L489 177L491 178L492 182L494 184L498 185L499 187L502 187L502 188L505 188L505 189L516 187L517 185L522 183L522 181L524 180L524 178L526 177L526 174L527 174L527 164L526 164L525 158L518 151L513 150L513 149L506 148L506 149L502 149L502 150L497 151L496 153L494 153L492 155L492 157L490 158L489 163ZM543 180L547 180L547 179L552 178L555 187L557 187L559 189L567 187L567 185L569 184L569 176L565 172L560 171L560 170L558 170L556 168L553 168L553 166L551 166L547 162L547 160L546 160L546 149L547 149L549 144L551 144L552 142L557 141L557 140L568 140L572 144L574 144L575 147L577 147L576 151L574 151L573 153L570 154L568 150L566 150L564 148L561 148L561 149L558 149L555 152L555 158L557 158L558 160L561 160L562 162L570 164L572 167L574 167L576 169L576 171L577 171L577 173L579 175L579 184L577 186L577 189L571 195L568 195L567 197L555 197L555 196L553 196L553 195L551 195L551 194L549 194L547 192L546 188L544 187ZM235 180L239 180L241 178L244 178L245 185L247 187L251 188L251 189L254 189L254 188L256 188L256 187L258 187L260 185L260 182L261 182L260 175L258 173L256 173L255 171L252 171L252 170L249 170L248 168L245 168L244 166L242 166L239 163L239 161L237 159L237 150L238 150L239 146L242 143L244 143L244 142L246 142L248 140L259 140L259 141L263 142L268 147L268 151L265 151L265 153L261 154L258 149L252 148L252 149L247 151L246 155L247 155L247 158L249 160L252 160L252 161L254 161L256 163L261 164L262 166L264 166L268 170L268 172L270 174L270 185L269 185L268 189L262 195L260 195L258 197L247 197L247 196L242 195L237 190L237 188L235 186ZM144 191L145 191L145 187L146 187L146 181L147 181L147 178L148 178L148 171L149 171L149 167L150 167L150 161L151 161L151 158L152 158L152 151L153 151L153 144L154 144L154 141L155 141L155 137L158 139L159 145L160 145L160 147L161 147L161 149L163 151L163 154L165 155L165 158L166 158L167 163L168 163L168 165L170 167L170 170L172 171L172 174L173 174L174 178L175 178L175 175L177 174L177 171L178 171L178 169L179 169L179 167L181 165L181 162L182 162L182 160L184 158L184 155L186 154L186 151L188 150L188 147L189 147L189 145L190 145L190 143L192 141L192 138L194 137L195 144L196 144L196 151L197 151L197 155L198 155L199 169L200 169L200 173L201 173L201 180L202 180L202 184L203 184L203 191L204 191L204 195L205 196L195 196L195 192L194 192L194 188L193 188L193 180L192 180L192 176L191 176L192 172L191 172L190 166L189 166L189 168L188 168L188 170L186 172L186 175L185 175L185 177L183 179L183 182L181 183L181 186L179 187L179 190L178 190L178 192L176 194L175 199L172 196L172 193L170 191L170 188L168 187L168 184L167 184L167 182L166 182L166 180L164 178L164 175L162 174L160 166L158 166L158 173L157 173L157 177L156 177L156 184L155 184L155 188L154 188L154 195L153 196L144 196ZM351 65L360 64L361 63L362 70L365 73L374 73L377 70L377 68L378 68L377 60L374 57L372 57L370 55L367 55L365 53L362 53L360 50L357 49L357 47L355 46L355 43L354 43L354 36L355 36L356 31L360 27L362 27L362 26L365 26L365 25L376 25L376 26L379 26L386 33L386 35L384 35L383 37L381 37L379 39L375 34L368 33L368 34L366 34L364 36L363 41L364 41L365 44L367 44L369 46L372 46L372 47L375 47L376 49L379 49L381 52L384 53L384 55L386 57L386 60L387 60L386 73L377 81L365 82L365 81L361 81L360 79L358 79L355 76L355 74L353 73ZM655 80L656 80L656 73L657 73L657 69L658 69L658 63L659 63L659 60L660 60L660 53L661 53L661 50L662 50L662 43L663 43L663 40L664 40L664 33L665 33L665 29L666 29L665 27L666 27L667 22L668 22L668 24L669 24L669 26L670 26L670 28L672 30L673 36L675 37L675 40L676 40L676 42L677 42L677 44L679 46L679 49L681 50L681 53L682 53L682 56L684 57L685 62L687 62L687 59L689 58L689 55L690 55L690 53L691 53L691 51L693 49L693 46L695 45L696 39L698 38L698 35L699 35L699 33L700 33L700 31L702 29L702 26L704 25L704 22L706 22L708 38L709 38L709 43L710 43L710 50L711 50L711 55L712 55L711 57L712 57L712 61L713 61L713 68L714 68L714 72L715 72L715 79L716 79L716 81L707 81L706 80L702 50L701 50L701 53L699 54L699 56L697 58L697 61L696 61L696 63L695 63L695 65L693 67L693 70L692 70L692 72L691 72L691 74L690 74L690 76L689 76L689 78L687 80L687 83L684 82L682 74L680 73L680 70L679 70L679 68L678 68L678 66L676 64L676 61L675 61L675 59L673 57L673 54L671 53L671 50L670 50L670 55L669 55L669 59L668 59L668 66L667 66L667 70L666 70L665 81L655 81ZM610 141L629 141L629 142L635 142L637 144L642 145L642 147L644 147L646 149L646 151L648 151L648 153L650 154L651 159L652 159L652 164L653 164L652 178L651 178L650 183L648 184L648 186L646 186L646 188L643 189L640 193L637 193L635 195L630 195L630 196L610 196ZM48 48L49 48L49 45L50 45L50 42L51 42L53 36L58 31L63 29L64 27L71 26L71 25L87 26L87 27L92 28L94 31L96 31L99 34L99 36L102 38L102 40L103 40L103 42L105 44L105 49L106 49L105 63L103 65L103 68L101 68L100 72L97 75L95 75L94 77L92 77L91 79L88 79L87 81L82 81L82 82L67 81L67 80L59 77L59 75L57 75L57 73L55 73L55 71L53 71L52 67L50 66L50 62L49 62L49 59L48 59ZM820 141L843 142L843 143L845 143L850 148L850 151L851 151L851 164L850 164L850 167L846 171L844 171L842 173L830 174L830 196L820 196ZM636 26L645 26L645 81L636 81ZM429 161L430 161L431 155L433 154L435 149L437 149L438 146L440 146L441 144L443 144L445 142L448 142L450 140L464 140L464 141L470 142L472 144L472 154L469 153L466 150L459 149L459 148L448 150L440 158L437 170L438 170L438 174L439 174L440 179L448 187L455 188L455 189L460 189L460 188L466 187L467 185L469 185L472 182L472 193L469 194L469 195L466 195L464 197L450 197L448 195L444 195L443 193L441 193L433 185L433 183L431 182L431 179L429 177ZM256 48L256 59L258 61L258 64L265 71L268 71L269 73L282 73L283 71L286 71L292 65L292 63L294 61L294 58L295 58L295 48L293 46L293 43L290 41L290 39L288 39L288 37L286 37L285 35L282 35L280 33L271 33L269 35L266 35L265 37L263 37L259 41L259 43L257 45L257 48ZM873 58L873 59L888 59L881 43L880 43L879 48L878 48L878 50L877 50L877 52L875 54L875 57ZM246 50L247 50L247 46L248 46L248 42L250 41L250 38L259 29L261 29L262 27L265 27L265 26L269 26L269 25L282 25L282 26L286 26L286 27L290 28L291 30L293 30L299 36L299 38L301 39L301 41L303 43L303 47L304 47L304 60L303 60L303 64L302 64L301 68L299 69L299 71L293 77L291 77L290 79L287 79L286 81L281 81L281 82L270 82L270 81L265 81L264 79L261 79L260 77L255 75L255 73L252 72L251 68L249 67L248 61L247 61ZM478 166L479 166L480 157L482 156L483 152L491 144L494 144L495 142L498 142L500 140L515 140L517 142L520 142L521 144L524 144L532 152L532 154L533 154L533 156L535 158L535 162L536 162L536 175L535 175L535 179L534 179L532 185L524 193L521 193L520 195L517 195L515 197L501 197L501 196L498 196L498 195L495 195L495 194L491 193L491 191L489 191L484 186L484 184L482 184L482 181L480 180L480 176L479 176L479 170L478 170L479 168L478 168ZM767 141L776 141L776 176L777 176L777 182L778 182L778 184L781 187L784 187L786 189L792 188L792 187L794 187L798 183L798 180L799 180L799 141L808 141L808 183L807 183L805 189L800 194L798 194L798 195L796 195L794 197L782 197L780 195L777 195L775 192L773 192L772 189L769 187L769 184L767 182ZM418 28L419 28L419 26L450 26L450 34L428 34L428 47L449 47L449 55L428 55L428 73L450 73L450 81L418 81L419 80L419 78L418 78L419 77L419 29ZM866 162L866 174L867 174L870 182L872 184L876 185L877 187L880 187L880 188L883 188L883 189L894 187L895 185L900 183L900 181L902 180L902 178L903 178L903 176L905 174L905 163L904 163L902 157L900 156L899 153L897 153L896 151L891 150L891 149L884 148L884 149L880 149L880 150L875 151L874 153L872 153L870 155L870 157L868 158L868 160ZM1001 141L1032 141L1032 150L1010 150L1010 162L1031 162L1031 170L1010 170L1010 187L1032 187L1032 196L1001 196ZM58 46L58 60L59 60L60 64L62 65L62 67L64 69L66 69L67 71L71 72L71 73L83 73L83 72L89 70L93 66L93 64L94 64L94 62L96 60L96 57L97 57L97 50L96 50L95 44L93 43L92 39L90 39L88 36L86 36L84 34L81 34L81 33L79 33L79 34L78 33L73 33L73 34L70 34L70 35L66 36L60 42L60 45ZM619 150L619 187L631 187L631 186L635 185L636 183L638 183L640 181L640 179L642 178L642 175L643 175L643 172L644 172L644 164L643 164L642 159L640 158L640 156L637 153L635 153L634 151ZM146 26L154 26L154 60L155 60L155 65L156 65L157 70L160 71L161 73L171 73L177 67L177 26L187 26L187 65L186 65L186 68L185 68L185 71L184 71L183 75L181 75L181 77L179 77L175 81L161 82L161 81L158 81L158 80L154 79L148 73L148 70L146 69ZM822 26L857 26L857 34L844 34L844 81L835 81L835 34L822 34ZM925 95L927 94L927 92L929 91L929 89L931 88L931 86L933 84L938 86L938 87L940 87L940 90L934 95L934 97L932 99L927 98ZM1018 50L1018 54L1019 54L1018 56L1019 56L1020 63L1028 71L1030 71L1032 73L1044 73L1046 71L1049 71L1049 69L1051 69L1054 66L1054 64L1056 63L1056 60L1058 58L1058 49L1057 49L1057 46L1056 46L1055 42L1049 36L1047 36L1045 34L1042 34L1042 33L1034 33L1032 35L1027 36L1022 41L1022 43L1020 44L1020 47L1019 47L1019 50ZM923 141L946 142L947 144L949 144L953 148L953 150L955 152L955 162L953 164L953 167L949 171L946 171L944 174L946 175L946 177L951 182L951 184L953 185L953 187L956 189L957 193L960 196L949 196L949 195L947 195L945 189L943 189L942 185L939 183L939 181L934 176L934 174L933 174L933 196L923 196ZM933 150L933 166L942 165L945 162L945 160L946 160L946 154L942 150ZM410 141L419 141L419 196L410 196ZM544 80L545 80L545 78L546 78L546 76L547 76L547 74L549 72L549 69L550 69L551 65L553 64L553 60L555 59L555 57L557 55L557 52L558 52L558 50L559 50L559 48L560 48L560 46L562 44L562 41L564 40L564 37L566 36L567 30L569 29L569 26L571 25L571 22L572 22L573 25L574 25L575 30L577 31L577 35L579 36L579 39L580 39L580 41L581 41L581 43L582 43L582 45L584 47L584 50L585 50L585 52L586 52L586 54L588 56L588 59L589 59L589 61L590 61L590 63L591 63L591 65L593 67L593 70L594 70L594 72L596 74L596 77L597 77L598 81L588 81L583 68L560 68L559 72L558 72L557 76L555 77L554 81L544 81ZM564 58L564 59L579 59L578 56L577 56L577 53L575 51L575 48L573 47L573 44L570 45L570 47L568 49L568 52L567 52L567 54L566 54L566 56ZM329 150L329 166L340 164L341 161L342 161L342 154L341 154L341 152L337 151L337 150ZM975 57L975 59L989 59L989 57L987 55L987 52L985 51L985 48L983 46L983 43L981 44L981 46L980 46L980 48L979 48L979 50L977 52L977 55ZM260 16L266 10L272 10L272 11L275 11L277 13L282 13L284 10L286 10L289 13L289 16L284 21L276 21L276 20L271 19L271 18L267 18L266 21L263 21L260 18ZM830 150L830 165L838 165L838 164L840 164L842 162L842 160L843 160L842 153L840 151L838 151L838 150ZM115 26L125 26L125 73L140 73L140 81L115 81ZM446 210L447 210L447 208L449 207L449 205L451 204L451 202L453 200L457 200L458 202L461 202L459 207L452 214L446 212Z"/></g></g>
</svg>
